<mxfile host="app.diagrams.net" modified="2024-02-19T05:17:10.858Z" agent="Mozilla/5.0 (Windows NT 10.0; Win64; x64) AppleWebKit/537.36 (KHTML, like Gecko) Chrome/121.0.0.0 Safari/537.36" version="23.0.2" etag="Ap7A7eL7EUDKBjwTBL2u" type="github">
  <diagram name="第 1 页" id="A00UAgALQZVYSpR9-1RS">
    <mxGraphModel>
      <root>
        <mxCell id="0" />
        <mxCell id="1" parent="0" />
      </root>
    </mxGraphModel>
  </diagram>
</mxfile>
